<mxfile host="app.diagrams.net" modified="2020-12-08T14:10:03.327Z" agent="5.0 (Windows NT 10.0; Win64; x64) AppleWebKit/537.36 (KHTML, like Gecko) Chrome/87.0.4280.67 Safari/537.36 Edg/87.0.664.55" etag="GxiYmPLqZ4gBsAq0C8xA" version="13.10.6" type="github">
  <diagram id="xWuo1dmWLH3NUlhKDKtT" name="Page-1">
    <mxGraphModel dx="981" dy="526" grid="0" gridSize="10" guides="1" tooltips="1" connect="1" arrows="1" fold="1" page="1" pageScale="1" pageWidth="827" pageHeight="583" math="0" shadow="0">
      <root>
        <mxCell id="0" />
        <mxCell id="1" parent="0" />
        <mxCell id="JlZpgMlqs7dc21pTuIbM-5" style="edgeStyle=orthogonalEdgeStyle;rounded=0;orthogonalLoop=1;jettySize=auto;html=1;exitX=1;exitY=0.5;exitDx=0;exitDy=0;entryX=0;entryY=0.5;entryDx=0;entryDy=0;" edge="1" parent="1" source="JlZpgMlqs7dc21pTuIbM-1" target="JlZpgMlqs7dc21pTuIbM-2">
          <mxGeometry relative="1" as="geometry" />
        </mxCell>
        <mxCell id="JlZpgMlqs7dc21pTuIbM-1" value="&lt;span style=&quot;line-height: 150%&quot;&gt;&lt;font style=&quot;font-size: 14px&quot;&gt;Got acquainted with &lt;i&gt;Avro &lt;/i&gt;file format&lt;/font&gt;&lt;/span&gt;" style="rounded=1;whiteSpace=wrap;html=1;" vertex="1" parent="1">
          <mxGeometry x="69" y="20" width="155" height="78" as="geometry" />
        </mxCell>
        <mxCell id="JlZpgMlqs7dc21pTuIbM-7" style="edgeStyle=orthogonalEdgeStyle;rounded=0;orthogonalLoop=1;jettySize=auto;html=1;exitX=1;exitY=0.5;exitDx=0;exitDy=0;entryX=0;entryY=0.5;entryDx=0;entryDy=0;" edge="1" parent="1" source="JlZpgMlqs7dc21pTuIbM-2" target="JlZpgMlqs7dc21pTuIbM-6">
          <mxGeometry relative="1" as="geometry" />
        </mxCell>
        <mxCell id="JlZpgMlqs7dc21pTuIbM-2" value="&lt;font style=&quot;line-height: 150% ; font-size: 14px&quot;&gt;Created required tables in &lt;i&gt;BigQuery&lt;/i&gt;&lt;/font&gt;" style="rounded=1;whiteSpace=wrap;html=1;" vertex="1" parent="1">
          <mxGeometry x="294" y="21.25" width="176" height="75.5" as="geometry" />
        </mxCell>
        <mxCell id="JlZpgMlqs7dc21pTuIbM-16" style="edgeStyle=orthogonalEdgeStyle;rounded=0;orthogonalLoop=1;jettySize=auto;html=1;exitX=1;exitY=0.5;exitDx=0;exitDy=0;entryX=0;entryY=0.5;entryDx=0;entryDy=0;" edge="1" parent="1" source="JlZpgMlqs7dc21pTuIbM-6" target="JlZpgMlqs7dc21pTuIbM-8">
          <mxGeometry relative="1" as="geometry" />
        </mxCell>
        <mxCell id="JlZpgMlqs7dc21pTuIbM-6" value="&lt;font size=&quot;1&quot;&gt;&lt;span style=&quot;line-height: 150% ; font-size: 14px&quot;&gt;Created &lt;i&gt;Pub/Sub &lt;/i&gt;notification topic for &lt;i&gt;Google Storage&lt;/i&gt;&lt;/span&gt;&lt;/font&gt;" style="rounded=1;whiteSpace=wrap;html=1;" vertex="1" parent="1">
          <mxGeometry x="523" y="22.130000000000003" width="160" height="74.25" as="geometry" />
        </mxCell>
        <mxCell id="JlZpgMlqs7dc21pTuIbM-17" style="edgeStyle=orthogonalEdgeStyle;rounded=0;orthogonalLoop=1;jettySize=auto;html=1;exitX=1;exitY=0.5;exitDx=0;exitDy=0;entryX=0;entryY=0.5;entryDx=0;entryDy=0;" edge="1" parent="1" source="JlZpgMlqs7dc21pTuIbM-8" target="JlZpgMlqs7dc21pTuIbM-10">
          <mxGeometry relative="1" as="geometry" />
        </mxCell>
        <mxCell id="JlZpgMlqs7dc21pTuIbM-8" value="&lt;font style=&quot;font-size: 14px ; line-height: 150%&quot;&gt;Created a &lt;i&gt;Spring Boot&lt;/i&gt; application with&amp;nbsp;&lt;i&gt;REST &lt;/i&gt;API endpoint for retrieving messages&lt;/font&gt;" style="rounded=1;whiteSpace=wrap;html=1;" vertex="1" parent="1">
          <mxGeometry x="91" y="137" width="170" height="83" as="geometry" />
        </mxCell>
        <mxCell id="JlZpgMlqs7dc21pTuIbM-13" style="edgeStyle=orthogonalEdgeStyle;rounded=0;orthogonalLoop=1;jettySize=auto;html=1;exitX=1;exitY=0.5;exitDx=0;exitDy=0;entryX=0;entryY=0.5;entryDx=0;entryDy=0;" edge="1" parent="1" source="JlZpgMlqs7dc21pTuIbM-10" target="JlZpgMlqs7dc21pTuIbM-12">
          <mxGeometry relative="1" as="geometry" />
        </mxCell>
        <mxCell id="JlZpgMlqs7dc21pTuIbM-10" value="&lt;font style=&quot;font-size: 14px&quot;&gt;Created a &lt;i&gt;Docker &lt;/i&gt;image and deployed project to &lt;i&gt;Cloud Run&lt;/i&gt;&lt;/font&gt;" style="rounded=1;whiteSpace=wrap;html=1;" vertex="1" parent="1">
          <mxGeometry x="308" y="141.5" width="178" height="74" as="geometry" />
        </mxCell>
        <mxCell id="JlZpgMlqs7dc21pTuIbM-15" style="edgeStyle=orthogonalEdgeStyle;rounded=0;orthogonalLoop=1;jettySize=auto;html=1;exitX=1;exitY=0.5;exitDx=0;exitDy=0;entryX=0;entryY=0.5;entryDx=0;entryDy=0;" edge="1" parent="1" source="JlZpgMlqs7dc21pTuIbM-12" target="JlZpgMlqs7dc21pTuIbM-14">
          <mxGeometry relative="1" as="geometry">
            <Array as="points">
              <mxPoint x="709" y="178" />
              <mxPoint x="709" y="173" />
              <mxPoint x="729" y="173" />
              <mxPoint x="729" y="235" />
              <mxPoint x="69" y="235" />
              <mxPoint x="69" y="292" />
            </Array>
          </mxGeometry>
        </mxCell>
        <mxCell id="JlZpgMlqs7dc21pTuIbM-12" value="&lt;font style=&quot;font-size: 14px ; line-height: 150%&quot;&gt;Created &lt;i&gt;Pub/Sub&lt;/i&gt; subcription of type &lt;i&gt;PUSH &lt;/i&gt;specifying the &lt;i&gt;URL &lt;/i&gt;of deployed service&lt;/font&gt;" style="rounded=1;whiteSpace=wrap;html=1;" vertex="1" parent="1">
          <mxGeometry x="527" y="137.5" width="186" height="82" as="geometry" />
        </mxCell>
        <mxCell id="JlZpgMlqs7dc21pTuIbM-19" style="edgeStyle=orthogonalEdgeStyle;rounded=0;orthogonalLoop=1;jettySize=auto;html=1;exitX=1;exitY=0.5;exitDx=0;exitDy=0;entryX=0;entryY=0.5;entryDx=0;entryDy=0;" edge="1" parent="1" source="JlZpgMlqs7dc21pTuIbM-14" target="JlZpgMlqs7dc21pTuIbM-18">
          <mxGeometry relative="1" as="geometry" />
        </mxCell>
        <mxCell id="JlZpgMlqs7dc21pTuIbM-14" value="&lt;font style=&quot;font-size: 14px ; line-height: 150%&quot;&gt;Implemented logic for parsing &lt;i&gt;Avro &lt;/i&gt;files and writing the parsed records to &lt;i&gt;BigQuery&lt;/i&gt;&lt;/font&gt;" style="rounded=1;whiteSpace=wrap;html=1;" vertex="1" parent="1">
          <mxGeometry x="100" y="250" width="196" height="84" as="geometry" />
        </mxCell>
        <mxCell id="JlZpgMlqs7dc21pTuIbM-21" style="edgeStyle=orthogonalEdgeStyle;rounded=0;orthogonalLoop=1;jettySize=auto;html=1;exitX=1;exitY=0.5;exitDx=0;exitDy=0;entryX=0;entryY=0.5;entryDx=0;entryDy=0;" edge="1" parent="1" source="JlZpgMlqs7dc21pTuIbM-18" target="JlZpgMlqs7dc21pTuIbM-20">
          <mxGeometry relative="1" as="geometry" />
        </mxCell>
        <mxCell id="JlZpgMlqs7dc21pTuIbM-18" value="&lt;font style=&quot;font-size: 14px&quot;&gt;Tested all the implemented classes&lt;/font&gt;" style="rounded=1;whiteSpace=wrap;html=1;" vertex="1" parent="1">
          <mxGeometry x="335" y="251" width="158" height="82" as="geometry" />
        </mxCell>
        <mxCell id="JlZpgMlqs7dc21pTuIbM-20" value="&lt;font style=&quot;font-size: 14px&quot;&gt;Deployed ready-to-run microservice once again&lt;/font&gt;" style="rounded=1;whiteSpace=wrap;html=1;" vertex="1" parent="1">
          <mxGeometry x="546" y="252.5" width="170" height="79" as="geometry" />
        </mxCell>
      </root>
    </mxGraphModel>
  </diagram>
</mxfile>
